<?xml version="1.0" encoding="utf-8"?>

<!-- Uploaded to: SVG Repo, www.svgrepo.com, Generator: SVG Repo Mixer Tools -->
<svg fill="#000000" height="800px" width="800px" version="1.1" id="Icons" xmlns="http://www.w3.org/2000/svg" xmlns:xlink="http://www.w3.org/1999/xlink" 
	 viewBox="0 0 32 32" xml:space="preserve">
<path d="M31.9,11.7C31.8,11.3,31.4,11,31,11H20.7l-3.7-9.4C16.8,1.2,16.4,1,16,1s-0.8,0.2-0.9,0.6L11.3,11H1c-0.4,0-0.8,0.3-0.9,0.7
	c-0.1,0.4,0,0.9,0.3,1.1l8.4,6.6L5.1,29.7c-0.1,0.4,0,0.9,0.3,1.1c0.3,0.3,0.8,0.3,1.2,0l9.4-6.2l9.4,6.2c0.2,0.1,0.4,0.2,0.6,0.2
	c0.2,0,0.4-0.1,0.6-0.2c0.3-0.3,0.5-0.7,0.3-1.1l-3.8-10.3l8.4-6.6C32,12.5,32.1,12.1,31.9,11.7z M16,21c-2.2,0-4-1.8-4-4s1.8-4,4-4
	s4,1.8,4,4S18.2,21,16,21z"/>
</svg>