<?xml version="1.0" encoding="utf-8"?>

<!DOCTYPE svg PUBLIC "-//W3C//DTD SVG 1.1//EN" "http://www.w3.org/Graphics/SVG/1.1/DTD/svg11.dtd">
<!-- Uploaded to: SVG Repo, www.svgrepo.com, Generator: SVG Repo Mixer Tools -->
<svg version="1.1" id="_x32_" xmlns="http://www.w3.org/2000/svg" xmlns:xlink="http://www.w3.org/1999/xlink" 
	 viewBox="0 0 512 512"  xml:space="preserve">
<style type="text/css">
</style>
<g>
	<rect x="168.084" y="335.709" class="st0" width="175.831" height="20.29"/>
	<rect x="168.084" y="387.871" class="st0" width="175.831" height="20.29"/>
	<rect x="168.084" y="434.242" class="st0" width="83.085" height="20.29"/>
	<path class="st0" d="M488.338,163.731c-8.009-8.029-19.199-13.028-31.44-13.028h-47.304V78.276L331.319,0h-4.798H102.405v150.703
		H55.102c-12.253,0-23.44,5-31.448,13.028c-8.02,8.013-13.02,19.199-13.012,31.436v169.958
		c-0.008,12.245,4.983,23.432,13.012,31.453c8.017,8.012,19.208,13.02,31.448,13.004h47.303V512h307.189V409.582h47.304
		c12.233,0.016,23.419-4.992,31.428-13.004c8.033-7.996,13.04-19.2,13.033-31.453V195.168
		C501.366,182.922,496.359,171.744,488.338,163.731z M324.587,26.048l57.024,57.041h-57.024V26.048z M386.409,488.819H125.59V398
		h-0.012v-94.655H386.4v106.238h0.008V488.819z M335.813,230.287c0-9.216,7.475-16.679,16.675-16.679
		c9.216,0,16.679,7.463,16.679,16.679c0,9.208-7.463,16.671-16.679,16.671C343.289,246.958,335.813,239.495,335.813,230.287z
		 M386.409,150.703H125.59V23.189h175.811v83.074h85.007V150.703z M423.467,246.958c-9.204,0-16.667-7.463-16.667-16.671
		c0-9.216,7.463-16.679,16.667-16.679c9.212,0,16.675,7.463,16.675,16.679C440.142,239.495,432.679,246.958,423.467,246.958z"/>
</g>
</svg>