<?xml version="1.0" encoding="utf-8"?>

<!-- Uploaded to: SVG Repo, www.svgrepo.com, Generator: SVG Repo Mixer Tools -->
<svg version="1.1" id="Icons" xmlns="http://www.w3.org/2000/svg" xmlns:xlink="http://www.w3.org/1999/xlink" 
	 viewBox="0 0 32 32" xml:space="preserve">
<style type="text/css">
	.st0{fill:none;stroke:#000000;stroke-width:2;stroke-linecap:round;stroke-linejoin:round;stroke-miterlimit:10;}
</style>
<g>
	<path d="M24,14c-2.8,0-5-2.2-5-5s2.2-5,5-5s5,2.2,5,5S26.8,14,24,14z"/>
</g>
<g>
	<path d="M24,3c-0.6,0-1-0.4-1-1V1c0-0.6,0.4-1,1-1s1,0.4,1,1v1C25,2.6,24.6,3,24,3z"/>
</g>
<g>
	<path d="M24,18c-0.6,0-1-0.4-1-1v-1c0-0.6,0.4-1,1-1s1,0.4,1,1v1C25,17.6,24.6,18,24,18z"/>
</g>
<g>
	<path d="M17.9,6.5c-0.2,0-0.3,0-0.5-0.1l-0.9-0.5c-0.5-0.3-0.6-0.9-0.4-1.4c0.3-0.5,0.9-0.6,1.4-0.4l0.9,0.5
		c0.5,0.3,0.6,0.9,0.4,1.4C18.6,6.3,18.3,6.5,17.9,6.5z"/>
</g>
<g>
	<path d="M30.9,14c-0.2,0-0.3,0-0.5-0.1l-0.9-0.5c-0.5-0.3-0.6-0.9-0.4-1.4c0.3-0.5,0.9-0.6,1.4-0.4l0.9,0.5
		c0.5,0.3,0.6,0.9,0.4,1.4C31.6,13.8,31.3,14,30.9,14z"/>
</g>
<g>
	<path d="M30.1,6.5c-0.3,0-0.7-0.2-0.9-0.5c-0.3-0.5-0.1-1.1,0.4-1.4l0.9-0.5c0.5-0.3,1.1-0.1,1.4,0.4c0.3,0.5,0.1,1.1-0.4,1.4
		l-0.9,0.5C30.4,6.5,30.2,6.5,30.1,6.5z"/>
</g>
<g>
	<path d="M27,32H2c-0.4,0-0.7-0.2-0.9-0.6S1,30.7,1.2,30.4C4.4,26.3,9.3,24,14.5,24s10.1,2.3,13.3,6.4c0.2,0.3,0.3,0.7,0.1,1.1
		S27.4,32,27,32z"/>
</g>
<g>
	<path d="M8.1,21h5.9c-0.4-7.6-2.3-11-2.9-11S8.5,13.4,8.1,21z"/>
	<path d="M8.2,10.4c-3.7,1.1-6.6,4.3-7.1,8.3c-0.1,0.6,0.1,1.1,0.5,1.6C1.9,20.8,2.5,21,3.1,21h3C6.3,17.1,6.9,12.9,8.2,10.4z"/>
	<path d="M20.9,18.8c-0.5-4-3.4-7.2-7.1-8.3c1.3,2.5,1.9,6.7,2.1,10.6h3c0.6,0,1.1-0.2,1.5-0.7C20.8,19.9,21,19.3,20.9,18.8z"/>
</g>
<g>
	<path d="M11,26c-0.6,0-1-0.4-1-1v-5c0-0.6,0.4-1,1-1s1,0.4,1,1v5C12,25.6,11.6,26,11,26z"/>
</g>
</svg>